<?xml version="1.0" encoding="UTF-8" standalone="no"?>
<svg xmlns="http://www.w3.org/2000/svg" width="650" height="150" viewBox="0 0 171.97916 39.6875" id="ff-logo">
    <g
       id="g1693"
       transform="matrix(0.57915429,0,0,0.57915429,5.4442998,-98.08889)">
      <path
         style="fill:#ff7f00;fill-opacity:1;stroke:none;stroke-width:0.0754434px;stroke-linecap:butt;stroke-linejoin:miter;stroke-opacity:1"
         d="m 45.064207,186.47452 c 0.07574,-0.60972 0.135948,-1.22698 0.280016,-1.81848 0.133461,-0.54796 0.266326,-1.09794 0.537185,-1.58598 0.461641,-0.83178 1.088028,-1.58688 1.809492,-2.20693 0.645805,-0.55504 1.403441,-0.99432 2.196536,-1.30436 0.848139,-0.33155 1.766202,-0.4764 2.672225,-0.56803 0.776677,-0.0785 1.561502,0.0399 2.341846,0.0184 1.306188,-0.036 3.912291,-0.24649 3.912291,-0.24649 l -1.181267,3.17258 c -0.09888,0.26556 -0.729238,1.07186 -1.25192,1.42973 -0.797555,0.54608 -1.803034,0.70111 -2.724817,0.992 -0.551474,0.17403 -1.124622,0.27394 -1.675543,0.44971 -0.562546,0.17948 -1.002142,0.25458 -1.660707,0.61651 -0.50238,0.27609 -1.223155,0.92201 -1.595655,1.43374 -0.785239,1.07875 -1.074727,1.4665 -1.762321,2.70834 -4.728093,9.34309 -3.139566,7.16084 -1.897361,-3.09078 z"
         id="path981"/>
      <path
         style="fill:#bf0000;fill-opacity:1;stroke:none;stroke-width:0.104586px;stroke-linecap:butt;stroke-linejoin:miter;stroke-opacity:1"
         d="m 45.436731,184.45502 1.088615,3.12486 0.441805,2.47202 c 0,0 0.340378,2.31756 0.334134,3.46398 -0.0088,1.60987 -0.152573,1.86185 -0.418246,2.81976 -0.144321,0.52038 -0.555209,1.16181 -0.764159,1.63824 -0.270857,0.61759 -0.800422,1.23895 -1.20721,1.71945 -0.598054,0.70644 -1.172953,1.10342 -1.871672,1.66239 -0.449062,0.35926 -0.89681,0.72074 -1.347578,1.07711 -0.511064,0.40404 -1.209786,0.9673 -1.538512,1.20304 -0.480957,0.34491 -0.769207,0.65339 -1.204959,1.06914 -0.475686,0.45385 -0.882723,0.99958 -1.287702,1.54017 -0.760076,1.01463 -1.446753,2.10604 -2.138204,3.18983 -0.268632,0.42104 -0.514332,0.86333 -0.780724,1.28648 -0.270246,0.42929 -0.31747,0.73981 -0.617547,1.13915 -0.285122,0.37944 -0.604773,1.72929 -0.604773,1.72929 0,0 -0.472141,-1.52733 -0.653755,-2.30287 -0.20074,-0.85722 -0.378542,-1.72309 -0.479643,-2.58859 -0.119322,-1.02132 -0.201747,-2.05371 -0.147312,-3.05107 0.06799,-1.24567 0.223351,-2.48051 0.588727,-3.60495 0.406335,-1.25048 0.823916,-1.67886 1.548444,-2.68005 0.476344,-0.65825 1.097732,-1.33647 1.716865,-1.80614 0.60401,-0.45818 1.499931,-1.2545 2.124534,-1.67647 0.521285,-0.35218 1.009772,-0.76469 1.48242,-1.1962 0.58529,-0.53435 1.162736,-1.08738 1.671169,-1.72036 0.505372,-0.62917 0.996739,-1.2904 1.360255,-2.05151 0.378593,-0.79267 0.994927,-2.26996 0.994927,-2.26996 l 1.145669,-2.60886 z"
         id="path983"/>
      <path
         style="fill:#ff7f00;fill-opacity:1;stroke:none;stroke-width:0.128967;stroke-linecap:round;stroke-opacity:1;paint-order:fill markers stroke"
         d="m 32.728541,196.7722 c -2.010292,-0.0402 -3.979443,0.7754 -5.565005,1.96775 -2.688531,2.22134 -4.208969,5.62364 -4.361726,9.07863 -0.357614,4.03787 1.277806,8.05816 0.42796,12.07106 -0.946699,3.74918 -4.18051,6.32923 -7.315641,8.28266 -0.09165,0.0999 -0.825211,0.42323 -0.3665,0.46297 5.60097,-0.15684 11.344094,-1.76916 15.7265,-5.37005 2.671784,-2.24315 4.399907,-5.77474 3.8925,-9.29932 -0.399486,-3.90576 -2.605442,-7.65249 -1.751436,-11.64431 0.356117,-2.01297 1.766772,-3.62033 3.132505,-5.01791 -1.221453,-0.45274 -2.52771,-0.5405 -3.819157,-0.53148 z"
         id="path985"/>
    </g>
    <g
       aria-label="Free"
       transform="skewX(-15.415887)"
       id="text989"
       style="font-size:32.1776px;line-height:1.25;font-family:Keraleeyam;-inkscape-font-specification:'Keraleeyam, Normal';letter-spacing:0.226249px;fill:#ff7f00;fill-opacity:1;stroke-width:0.377081">
      <path
         d="M 44.638907,30.394032 V 11.70037 h 8.149152 v 3.951104 h -4.272131 v 3.728855 h 4.198048 v 3.802937 h -4.198048 v 7.210766 z"
         style="font-style:normal;font-variant:normal;font-weight:bold;font-stretch:normal;font-size:24.6944px;font-family:'Built Titling';-inkscape-font-specification:'Built Titling, Bold';font-variant-ligatures:normal;font-variant-caps:normal;font-variant-numeric:normal;font-variant-east-asian:normal;fill:#ff7f00;fill-opacity:1;stroke-width:0.377081"
         id="path20" />
      <path
         d="m 54.298416,30.394032 z m 6.124211,0 q -0.07408,-0.22225 -0.148166,-0.469194 -0.04939,-0.271638 -0.123472,-0.790221 -0.07408,-0.543277 -0.197556,-1.481664 -0.123472,-0.938387 -0.296332,-2.568218 -0.07408,-0.642054 -0.148167,-1.037164 -0.07408,-0.395111 -0.172861,-0.592666 -0.09878,-0.22225 -0.246944,-0.271639 -0.148166,-0.07408 -0.321027,-0.07408 h -0.592665 v 7.284849 H 54.298416 V 11.70037 h 5.655017 q 1.259415,0 2.07433,0.296333 0.814915,0.271638 1.284109,0.888998 0.493888,0.592666 0.666749,1.555748 0.197555,0.938387 0.197555,2.296579 0,1.45697 -0.09878,2.296579 -0.09878,0.814915 -0.321027,1.284109 -0.197555,0.469194 -0.493888,0.716138 -0.296333,0.222249 -0.691443,0.444499 v 0.148166 q 0.148166,0.123472 0.296333,0.271639 0.172861,0.148166 0.296333,0.493888 0.197555,0.444499 0.39511,1.358192 0.22225,0.888998 0.419805,2.518829 0.148166,1.135942 0.222249,1.827385 0.07408,0.691443 0.123472,1.111248 0.07408,0.419805 0.09878,0.642055 0.04939,0.222249 0.123472,0.419805 v 0.123472 z M 59.26199,19.627273 q 0.543277,0 0.765527,-0.444499 0.222249,-0.469194 0.222249,-1.777997 0,-1.111248 -0.271638,-1.481664 -0.246944,-0.370416 -0.814915,-0.370416 h -0.987776 v 4.074576 z"
         style="font-style:normal;font-variant:normal;font-weight:bold;font-stretch:normal;font-size:24.6944px;font-family:'Built Titling';-inkscape-font-specification:'Built Titling, Bold';font-variant-ligatures:normal;font-variant-caps:normal;font-variant-numeric:normal;font-variant-east-asian:normal;fill:#ff7f00;fill-opacity:1;stroke-width:0.377081"
         id="path22" />
      <path
         d="m 65.933476,30.394032 z m 0,0 V 11.70037 H 74.2061 v 3.951104 h -4.395603 v 3.284356 h 4.32152 v 3.778243 h -4.32152 v 3.531299 h 4.370909 v 4.14866 z"
         style="font-style:normal;font-variant:normal;font-weight:bold;font-stretch:normal;font-size:24.6944px;font-family:'Built Titling';-inkscape-font-specification:'Built Titling, Bold';font-variant-ligatures:normal;font-variant-caps:normal;font-variant-numeric:normal;font-variant-east-asian:normal;fill:#ff7f00;fill-opacity:1;stroke-width:0.377081"
         id="path24" />
      <path
         d="m 75.988066,30.394032 z m 0,0 V 11.70037 h 8.272624 v 3.951104 h -4.395603 v 3.284356 h 4.32152 v 3.778243 h -4.32152 v 3.531299 h 4.370909 v 4.14866 z"
         style="font-style:normal;font-variant:normal;font-weight:bold;font-stretch:normal;font-size:24.6944px;font-family:'Built Titling';-inkscape-font-specification:'Built Titling, Bold';font-variant-ligatures:normal;font-variant-caps:normal;font-variant-numeric:normal;font-variant-east-asian:normal;fill:#ff7f00;fill-opacity:1;stroke-width:0.377081"
         id="path26" />
    </g>
    <g
       aria-label="Flarum"
       id="text993"
       style="font-size:32.1776px;line-height:1.25;font-family:Keraleeyam;-inkscape-font-specification:'Keraleeyam, Normal';letter-spacing:0.226249px;fill:#bf0000;fill-opacity:1;stroke-width:0.377081">
      <path
         d="M 86.259676,30.379978 V 11.686317 h 8.149153 v 3.951104 h -4.272132 v 3.728854 h 4.198049 v 3.802938 h -4.198049 v 7.210765 z"
         style="font-style:normal;font-variant:normal;font-weight:bold;font-stretch:normal;font-size:24.6944px;font-family:'Built Titling';-inkscape-font-specification:'Built Titling, Bold';font-variant-ligatures:normal;font-variant-caps:normal;font-variant-numeric:normal;font-variant-east-asian:normal;fill:#bf0000;fill-opacity:1;stroke-width:0.377081"
         id="path29" />
      <path
         d="m 95.919185,30.379978 z m 0,0 V 11.686317 h 3.877021 v 14.545002 h 4.000494 v 4.148659 z"
         style="font-style:normal;font-variant:normal;font-weight:bold;font-stretch:normal;font-size:24.6944px;font-family:'Built Titling';-inkscape-font-specification:'Built Titling, Bold';font-variant-ligatures:normal;font-variant-caps:normal;font-variant-numeric:normal;font-variant-east-asian:normal;fill:#bf0000;fill-opacity:1;stroke-width:0.377081"
         id="path31" />
      <path
         d="m 104.64029,30.379978 z m 6.39585,0 -0.32103,-4.32152 h -1.87677 l -0.29634,4.32152 h -3.90171 l 2.00025,-18.693661 h 6.51932 l 1.87677,18.693661 z M 109.9002,15.588032 h -0.27164 l -0.61736,6.692183 h 1.53105 z"
         style="font-style:normal;font-variant:normal;font-weight:bold;font-stretch:normal;font-size:24.6944px;font-family:'Built Titling';-inkscape-font-specification:'Built Titling, Bold';font-variant-ligatures:normal;font-variant-caps:normal;font-variant-numeric:normal;font-variant-east-asian:normal;fill:#bf0000;fill-opacity:1;stroke-width:0.377081"
         id="path33" />
      <path
         d="m 116.39882,30.379978 z m 6.12421,0 q -0.0741,-0.222249 -0.14817,-0.469193 -0.0494,-0.271639 -0.12347,-0.790221 -0.0741,-0.543277 -0.19756,-1.481664 -0.12347,-0.938388 -0.29633,-2.568218 -0.0741,-0.642054 -0.14817,-1.037165 -0.0741,-0.39511 -0.17286,-0.592665 -0.0988,-0.22225 -0.24694,-0.271639 -0.14817,-0.07408 -0.32103,-0.07408 h -0.59266 v 7.284848 h -3.87702 V 11.686317 h 5.65501 q 1.25942,0 2.07433,0.296333 0.81492,0.271638 1.28411,0.888998 0.49389,0.592666 0.66675,1.555747 0.19756,0.938388 0.19756,2.29658 0,1.456969 -0.0988,2.296579 -0.0988,0.814915 -0.32103,1.284109 -0.19755,0.469193 -0.49389,0.716137 -0.29633,0.22225 -0.69144,0.444499 v 0.148167 q 0.14817,0.123472 0.29633,0.271638 0.17286,0.148167 0.29634,0.493888 0.19755,0.4445 0.39511,1.358192 0.22225,0.888999 0.4198,2.518829 0.14817,1.135943 0.22225,1.827386 0.0741,0.691443 0.12347,1.111248 0.0741,0.419805 0.0988,0.642054 0.0494,0.22225 0.12347,0.419805 v 0.123472 z m -1.16064,-10.766759 q 0.54328,0 0.76553,-0.444499 0.22225,-0.469193 0.22225,-1.777997 0,-1.111248 -0.27164,-1.481664 -0.24695,-0.370416 -0.81492,-0.370416 h -0.98777 v 4.074576 z"
         style="font-style:normal;font-variant:normal;font-weight:bold;font-stretch:normal;font-size:24.6944px;font-family:'Built Titling';-inkscape-font-specification:'Built Titling, Bold';font-variant-ligatures:normal;font-variant-caps:normal;font-variant-numeric:normal;font-variant-east-asian:normal;fill:#bf0000;fill-opacity:1;stroke-width:0.377081"
         id="path35" />
      <path
         d="m 127.63875,30.379978 z m 6.22298,-18.693661 h 3.85233 v 12.939866 q -0.0247,1.160637 -0.0988,1.926163 -0.0741,0.765526 -0.19755,1.284109 -0.0988,0.518582 -0.24695,0.864304 -0.14816,0.321027 -0.34572,0.642054 -0.24694,0.395111 -0.59266,0.666749 -0.32103,0.246944 -0.81492,0.395111 -0.49389,0.17286 -1.16064,0.222249 -0.66674,0.07408 -1.55574,0.07408 -1.80269,0 -2.74108,-0.296332 -0.93839,-0.271639 -1.40758,-1.06186 -0.19756,-0.321027 -0.37042,-0.642054 -0.17286,-0.345722 -0.29633,-0.864304 -0.12347,-0.518583 -0.19756,-1.284109 -0.0494,-0.765526 -0.0494,-1.926163 V 11.686317 h 3.97579 v 12.939866 q 0,0.666749 0.0247,1.037165 0.0494,0.370416 0.17286,0.567971 0.12347,0.197555 0.34572,0.246944 0.22225,0.04939 0.59267,0.04939 0.37041,0 0.56797,-0.04939 0.22225,-0.04939 0.34572,-0.246944 0.12347,-0.197555 0.14817,-0.567971 0.0494,-0.370416 0.0494,-1.037165 z"
         style="font-style:normal;font-variant:normal;font-weight:bold;font-stretch:normal;font-size:24.6944px;font-family:'Built Titling';-inkscape-font-specification:'Built Titling, Bold';font-variant-ligatures:normal;font-variant-caps:normal;font-variant-numeric:normal;font-variant-east-asian:normal;fill:#bf0000;fill-opacity:1;stroke-width:0.377081"
         id="path37" />
      <path
         d="m 139.39728,30.379978 z m 11.23595,0 V 19.16872 h -0.14817 l -2.83985,11.211258 h -1.70392 L 143.07674,19.16872 h -0.14816 v 11.211258 h -3.5313 V 11.686317 h 5.48215 l 1.72861,8.124458 h 0.17286 l 1.92617,-8.124458 h 5.45746 l 0.0247,18.693661 z"
         style="font-style:normal;font-variant:normal;font-weight:bold;font-stretch:normal;font-size:24.6944px;font-family:'Built Titling';-inkscape-font-specification:'Built Titling, Bold';font-variant-ligatures:normal;font-variant-caps:normal;font-variant-numeric:normal;font-variant-east-asian:normal;fill:#bf0000;fill-opacity:1;stroke-width:0.377081"
         id="path39" />
    </g>
</svg>
