<?xml version="1.0" encoding="utf-8"?>
<svg version="1.1" id="Layer_1" xmlns="http://www.w3.org/2000/svg" xmlns:xlink="http://www.w3.org/1999/xlink" x="0px" y="0px"
	 viewBox="0 0 400 100" style="enable-background:new 0 0 400 100;" xml:space="preserve">
<style type="text/css">
	.st0{fill:#FF7F00;}
	.st1{fill:#BF0000;}
	.st2{fill:none;}
	.st3{font-family:'TrebuchetMS';}
	.st4{font-size:40px;}
	.st5{font-family:'Verdana';}
	.st6{font-size:13px;}
</style>
<g>
	<path class="st0" d="M58.6,45.7c-0.6,0-1.4,0-2.1,0.2c-0.7,0.3-1.3,0.3-1.8,0.2c-0.3,0.2-0.6,0.3-0.9,0.5c-1.6,0.7-3.5,0.9-5.2,1.2
		c-1.9,0.6-3.9,1.2-5.6,2c-0.2,0.1-0.4,0.2-0.6,0.3c-0.1,0-0.1,0.1-0.2,0.1c-0.5,0.4-1,0.9-1.6,1.1c-1,0.9-1.9,1.9-3,2.7
		c-0.1,0.1-0.1,0.1-0.2,0.1c-0.4,0.6-0.8,1.1-1.1,1.7c-1.4,2.5-2.3,5.1-3,7.7V64c0,0.2-0.2,0.5-0.3,1c0,0.1-0.1,0.1-0.1,0.2
		c-0.8,3.1-1.4,6.1-2.2,9.1c-0.1,0.4-0.2,0.8-0.3,1.2v0.2c0,0.1-0.1,0.2-0.1,0.2c-0.4,1.3-0.7,2.7-1.1,4c0,0.5-0.3,0.9-0.3,1.4
		c0,0.1,0,0.1-0.1,0.2c-0.2,0.9-0.5,1.9-0.7,2.8c-0.2,1-0.4,2.2-0.9,3.1L27,87.9c-0.2,0.3-0.1,0.4-0.5,1.1c-0.1,0.3,0.4-0.8-0.3,0.6
		c-0.4,0.6-0.9,1-1.4,1.5c-0.2,0.5-2.7,3-3.9,3.3c0,0-0.1,0-0.1,0c-0.1,0-0.2,0-0.2,0.1c-0.1,0.1-0.2,0.1-0.4,0.1
		c-0.2,0.1-0.5,0.2-0.7,0.2c-0.1,0-0.1,0-0.2,0c-0.2,0.1-0.4,0.1-0.5,0.1c-1.2,0.3-2.5,0.1-3.7,0.1c0,0,0,0-0.1,0c0,0-0.1,0-0.1,0
		c0,0,0,0-0.1,0c-0.1,0-0.1,0-0.2,0c-1,0-1.9,0-2.8,0.2c0,0-0.1,0-0.1,0.1c0,0,0,0,0,0c0.6,0.1,1.2,0.2,1.8,0.2c1,0,2.1,0,3.1,0
		c0.1,0,0.1,0,0.2,0c0.1,0,0.2,0,0.4,0c0,0,0,0,0.1,0c0.1,0,0.1,0,0.2,0c0.2,0,0.4,0,0.6-0.1c0.7-0.1,1.5-0.1,2.2-0.1
		c0.4,0,0.8,0,1.2,0c0.1,0,0.2,0,0.2,0c2.5,0,4.9-0.3,7.4-0.5c1.9-0.2,3.8-0.4,5.6-0.8c1.9-0.5,3.6-1.2,5.1-2.4
		c1-0.8,1.9-1.5,2.8-2.2c0.8-1.3,1.3-2.7,1.7-4.1c0.3-0.8,0.5-1.5,0.8-2.3c0.6-3.8,1.6-7.6,2.4-11.4v-4.1c0-0.5,0.3-1,0.3-1.5v-3.4
		c0-0.2-0.1-0.7,0-1.2c0.2-0.5,0.2-1,0.3-1.2c0.1-0.8,0.3-1.2,0.6-1.7c0.3-0.5,0.5-0.8,0.6-1c0.2-0.3,0.3-0.7,0.3-1.2
		c0-0.5,0.3-0.7,0.6-1c0.3-0.2,0.3-0.6,0.6-0.7c0.4-0.1,0.3-0.5,0.6-1c0.3-0.5,0.7-0.6,0.9-0.7c0.2-0.2,0.3-0.5,0.3-0.7
		c0-0.2,0.2-0.6,0.6-1c0.2-0.2,0.7-0.2,0.9-0.5c0.1-0.2,0.7-0.3,0.9-0.5c0.2-0.2,0.1-0.3,0.3-0.5c0.3-0.5,0.6-0.6,0.9-0.7
		c0.4-0.1,0.3-0.4,0.6-0.5c0.6-0.1,0.8-0.6,1.2-0.7c0.3-0.1,0.6,0,0.9,0c0.3,0,0.6-0.2,0.9-0.2c0.4-0.1,0.7-0.1,0.9-0.2
		c0.2-0.2,0.3-0.5,0.6-0.5s0.4-0.1,0.6-0.2c0.2-0.2,0.5-0.1,0.9-0.2c0.3-0.1,0.6,0,1.2,0s0.6-0.2,1.2-0.2s0.7-0.3,0.9-0.5H58.6z"/>
	<path class="st0" d="M65.8,45.7h0.9C66.4,45.7,66.1,45.5,65.8,45.7z"/>
	<path class="st0" d="M68.5,45.7h0.3c0.3,0,0.9,0.2,0.9,0S68.8,45.7,68.5,45.7z"/>
	<path class="st1" d="M95,22.9c-0.3,0,0,0.5,0,0.8C95,23.5,95.3,22.9,95,22.9z"/>
	<path class="st1" d="M80.8,48.3c2.7-0.9,4.6-3,6.1-5c1.3-1.9,2.6-3.9,3.4-5.9c0.6-1.6,1.2-3.2,1.9-4.7c0-0.1,0.1-0.2,0.1-0.3
		c0.1-0.2,0.2-0.4,0.3-0.6c0-0.1,0-0.3,0.1-0.3c0,0,0.1-0.1,0.1-0.1c0.2-0.3,0.3-0.6,0.5-0.8c0.1-0.5,0.2-0.7,0.3-0.9
		c0.2-0.3,0.4-0.4,0.6-0.8c0.2-0.5,0-0.8,0-1.1v-0.8c0-0.3,0.4-0.2,0.6-0.5c0.3-0.7,0-1.1,0-1.3v-0.3c-0.2,0.3-0.9,1.1-1.2,1.3
		c-0.1,0.1-0.4,0.2-0.6,0.3c0,0.1,0,0.2-0.1,0.3c-0.8,1.6-2.8,2.4-4.1,3.7c-1.5,1.6-3.2,2.9-5.2,4.1c-1.9,1-3.9,2-5.9,2.8
		c-2.1,0.8-4.1,1.2-6.4,1.5c-0.9,0.1-1.8,0.3-2.7,0.4L48.8,57.2c0,0,0.3,0,0.6,0h1.2c0.3,0,0.4-0.1,0.6-0.3c0.2-0.2,0.7,0.2,0.9,0
		c0.2-0.2,0.3-0.3,0.6-0.3c0.3,0,0.6-0.3,0.9-0.3c0.3,0,0.3-0.3,0.6-0.3c0.3,0,0.4-0.1,0.6-0.3s0.2-0.4,0.6-0.5
		c0.3-0.1,0.5-0.1,0.9-0.3c0.1,0,0.1,0,0.2,0c0,0,0.1,0,0.1-0.1c0.2-0.1,0.4-0.2,0.7-0.3c0.1-0.1,0.2-0.2,0.5-0.3c0.1,0,0.2,0,0.2,0
		c1.4-0.7,2.7-1.2,4.2-1.8c0.1,0,0.2-0.1,0.3-0.1c0.1-0.1,0.2-0.1,0.2-0.2c0.2-0.2,0.3-0.2,0.6-0.3c0.4-0.1,0.6-0.3,0.9-0.3
		c0.1,0,0.1,0,0.2,0c0.1,0,0.1-0.1,0.2-0.1c0.1-0.1,0.2-0.1,0.4-0.1c0.2-0.1,0.3-0.1,0.5-0.2c0.2-0.2,0.5-0.4,0.8-0.4H66
		c0.5-0.2,1.1-0.4,1.6-0.6c1.7-0.6,3.5-0.8,5.3-0.9C75.5,49,78.3,49.1,80.8,48.3z"/>
	<path class="st1" d="M94.7,24.3v0.5c0.1-0.2,0.3-0.8,0.3-1.1C95,24,94.7,24,94.7,24.3z"/>
	<path class="st0" d="M109.4,14.1c1.8-1.5,3.7-3,5.9-3.9c1.8-0.8,3.8-1.1,5.6-1.7c1.2-0.4,1.7-1.1,1.9-2c0-0.2,0-0.4,0-0.6
		c0-0.8-0.2-1.8-0.1-2.6c0,0,0-0.1,0-0.1c-0.2,0-0.5,0-0.7,0c-0.7,0-1.4,0-2.1,0c-9.6,0.2-23.8,1.5-26.7,11.3c0,0,0,0.1,0,0.1v15.8
		l0.3-0.1c2.8-4.2,6.4-7.9,10.2-11.3C105.5,17.4,107.4,15.7,109.4,14.1z"/>
	<path class="st1" d="M71.3,38.7c-4.5,0.5-8.9,2.3-12.6,4.6c-1.6,1-2.9,2.6-4.7,3.4c-0.1,0.1-0.3,0.1-0.4,0.2
		c-0.2,0.1-0.3,0.2-0.4,0.3c-0.1,0.2-0.2,0.3-0.3,0.5c-0.1,0.2-0.1,0.2-0.2,0.4c-0.2,0.4-0.4,0.3-0.6,0.7C51.9,49,52,49,51.8,49.4
		c-0.2,0.3-0.4,0.4-0.5,0.5c-0.4,0.3-0.6,0.7-1,1.4c-0.5,0.8-0.8,1.4-1,2.1c0,0.2-0.2,1-0.6,1.5c0,0-0.1,0.1-0.1,0.2
		c-0.1,0.2-0.2,0.4-0.2,0.8c0,0.2,0,0.4,0,0.7v1.9c0,0.2,0.3,0.2,0.5,0.2h0.4c0.6-0.9,1.9-1.3,3-1.6c1.5-0.5,2.8-1.4,4.2-2.2
		c0.3-0.2,0.7-0.3,1-0.5c0.2,0,0.3-0.1,0.4-0.2c0.1-0.1,0-0.3,0.1-0.5c0.1-0.1,0.1-0.2,0.3-0.3c0.2-0.1,0.3-0.2,0.5-0.3
		c0.3-0.2,0.6-0.4,0.8-0.6c0.2-0.4,0.3-0.6,0.8-1.1c0.3-0.2,0.5-0.7,0.8-1.1c0.5-0.7,0.9-1,1.3-1.3c0.4-0.3,0.4-1,0.8-1.3
		c0.4-0.3,0.5-0.5,0.8-0.6c0.5-0.3,0.7-0.9,1-1.3c0.2-0.2,1-0.3,1.3-0.9c0.1-0.2,0.2-0.2,0.3-0.4c0.1-0.3,0.3-0.4,0.8-0.6
		c0.3-0.2,0.3-0.4,0.5-0.6c0.3-0.4,0.8-0.3,1-0.4c0.3-0.1,0.1-0.7,0.3-0.9c0.4-0.3,0.9-0.1,1-0.4c0.1-0.2,0.3-0.4,0.5-0.4
		c0.6-0.1,0.6-0.3,0.8-0.4c0.2-0.2,0.3-0.2,0.3-0.4c0-0.2,0.1-0.3,0.3-0.4c0.2-0.2,0.3-0.2,0.3-0.6c0-0.2,0.3-0.2,0.3-0.4v-0.1
		C71.8,38.6,71.5,38.7,71.3,38.7z"/>
</g>
<rect x="142.3" y="28" class="st2" width="247" height="32.2"/>
<text transform="matrix(1 0 0 1 163.5499 57.4835)" class="st3 st4">FreeFlarum</text>
<text transform="matrix(1 0 0 1 173.0078 79.1606)" class="st5 st6">Free Flarum Forums Forever</text>
</svg>
